<?xml version="1.0" encoding="UTF-8" standalone="no"?>
<svg
   xmlns:dc="http://purl.org/dc/elements/1.1/"
   xmlns:cc="http://creativecommons.org/ns#"
   xmlns:rdf="http://www.w3.org/1999/02/22-rdf-syntax-ns#"
   xmlns:svg="http://www.w3.org/2000/svg"
   xmlns="http://www.w3.org/2000/svg"
   xmlns:sodipodi="http://sodipodi.sourceforge.net/DTD/sodipodi-0.dtd"
   xmlns:inkscape="http://www.inkscape.org/namespaces/inkscape"
   width="203.3772mm"
   height="203.3772mm"
   viewBox="0 0 203.3772 203.3772"
   version="1.1"
   id="svg2065"
   inkscape:version="1.0.2 (394de47547, 2021-03-26)"
   sodipodi:docname="practice.svg">
  <defs
     id="defs2059">
    <rect
       x="60.522263"
       y="212.86929"
       width="96.495193"
       height="20.156141"
       id="rect4640" />
    <rect
       x="51.473858"
       y="201.03067"
       width="112.33248"
       height="36.542324"
       id="rect3082" />
  </defs>
  <sodipodi:namedview
     id="base"
     pagecolor="#ffffff"
     bordercolor="#666666"
     borderopacity="1.0"
     inkscape:pageopacity="0.0"
     inkscape:pageshadow="2"
     inkscape:zoom="0.49497475"
     inkscape:cx="406.39032"
     inkscape:cy="372.75559"
     inkscape:document-units="mm"
     inkscape:current-layer="layer1"
     inkscape:document-rotation="0"
     showgrid="false"
     inkscape:window-width="1600"
     inkscape:window-height="900"
     inkscape:window-x="0"
     inkscape:window-y="0"
     inkscape:window-maximized="1"
     showguides="false" />
  <metadata
     id="metadata2062">
    <rdf:RDF>
      <cc:Work
         rdf:about="">
        <dc:format>image/svg+xml</dc:format>
        <dc:type
           rdf:resource="http://purl.org/dc/dcmitype/StillImage" />
        <dc:title></dc:title>
      </cc:Work>
    </rdf:RDF>
  </metadata>
  <g
     inkscape:label="Layer 1"
     inkscape:groupmode="layer"
     id="layer1"
     transform="translate(-3.5452161,-44.680836)">
    <rect
       style="fill:#c1e0e1;fill-opacity:1;stroke-width:0.794449;paint-order:stroke fill markers"
       id="rect833"
       width="113.33772"
       height="128.64899"
       x="51.473858"
       y="72.381691"
       ry="15.905752" />
    <circle
       style="fill:#a9ffe2;fill-opacity:1;stroke-width:0.856494;paint-order:stroke fill markers"
       id="path4658"
       cx="110.88182"
       cy="126.90989"
       r="14.544289" />
    <path
       style="fill:#008080;fill-opacity:1;stroke-width:0.856494;paint-order:stroke fill markers"
       id="circle4662"
       d="m 125.4262,126.90992 a 14.544252,14.544252 0 0 1 -2.88198,8.69013 l -11.66228,-8.69013 z" />
    <path
       style="fill:#008080;fill-opacity:1;stroke-width:0.856494;paint-order:stroke fill markers"
       id="path4666"
       d="m 112.07764,141.40469 a 14.544252,14.544252 0 0 1 -8.89791,-2.1572 l 7.70221,-12.33755 z"
       sodipodi:insensitive="true" />
    <path
       style="fill:#008080;fill-opacity:1;stroke-width:0.856494;paint-order:stroke fill markers"
       id="path4680"
       d="m 96.338473,127.07476 a 14.544252,14.544252 0 0 1 2.783149,-8.72256 l 11.760318,8.55774 z"
       sodipodi:insensitive="true" />
    <path
       style="fill:#008080;fill-opacity:1;stroke-width:0.856494;paint-order:stroke fill markers"
       id="path4682"
       d="m 109.52204,112.42939 a 14.544252,14.544252 0 0 1 8.92169,2.05656 l -7.56179,12.42399 z"
       sodipodi:insensitive="true" />
    <ellipse
       style="fill:none;fill-opacity:1;stroke:#388583;stroke-width:0.53388;stroke-opacity:1;paint-order:stroke fill markers"
       id="ellipse4769"
       cx="-13.075068"
       cy="151.24036"
       rx="6.1825666"
       ry="12.40274"
       transform="matrix(0.83273401,-0.55367325,0.57138908,0.8206793,0,0)"
       sodipodi:insensitive="true" />
    <rect
       style="fill:none;fill-opacity:1;stroke:#388583;stroke-width:0.53388;stroke-opacity:1;paint-order:stroke fill markers"
       id="rect4771"
       width="12.338916"
       height="0.090925358"
       x="-19.297104"
       y="151.03389"
       transform="matrix(0.83273401,-0.55367325,0.57138908,0.8206793,0,0)"
       sodipodi:insensitive="true" />
    <rect
       style="fill:none;fill-opacity:1;stroke:#388583;stroke-width:0.529612;stroke-opacity:1;paint-order:stroke fill markers"
       id="rect4773"
       width="11.38225"
       height="0.09698417"
       x="-18.897142"
       y="147.36153"
       transform="matrix(0.83273401,-0.55367325,0.57138908,0.8206793,0,0)"
       sodipodi:insensitive="true" />
    <rect
       style="fill:none;fill-opacity:1;stroke:#388583;stroke-width:0.491342;stroke-opacity:1;paint-order:stroke fill markers"
       id="rect4775"
       width="8.9999037"
       height="0.10558637"
       x="-17.560492"
       y="143.38142"
       transform="matrix(0.83273401,-0.55367325,0.57138908,0.8206793,0,0)"
       sodipodi:insensitive="true" />
    <rect
       style="fill:none;fill-opacity:1;stroke:#388583;stroke-width:0.53388;stroke-opacity:1;paint-order:stroke fill markers"
       id="rect4777"
       width="12.338916"
       height="0.09092544"
       x="-19.297104"
       y="-151.216"
       transform="matrix(0.83273401,-0.55367325,-0.57138909,-0.8206793,0,0)"
       sodipodi:insensitive="true" />
    <rect
       style="fill:none;fill-opacity:1;stroke:#388583;stroke-width:0.529612;stroke-opacity:1;paint-order:stroke fill markers"
       id="rect4779"
       width="11.38225"
       height="0.096984327"
       x="-18.897144"
       y="-154.88847"
       transform="matrix(0.83273401,-0.55367325,-0.57138909,-0.8206793,0,0)"
       sodipodi:insensitive="true" />
    <rect
       style="fill:none;fill-opacity:1;stroke:#388583;stroke-width:0.491342;stroke-opacity:1;paint-order:stroke fill markers"
       id="rect4781"
       width="8.9999037"
       height="0.10558647"
       x="-17.560478"
       y="-158.86852"
       transform="matrix(0.83273401,-0.55367325,-0.57138909,-0.8206793,0,0)"
       sodipodi:insensitive="true" />
    <rect
       style="fill:none;fill-opacity:1;stroke:#388583;stroke-width:0.529612;stroke-opacity:1;paint-order:stroke fill markers"
       id="rect4783"
       width="11.38225"
       height="0.09698417"
       x="-18.897142"
       y="147.36153"
       transform="matrix(0.83273401,-0.55367325,0.57138908,0.8206793,0,0)"
       sodipodi:insensitive="true" />
    <rect
       style="fill:none;fill-opacity:1;stroke:#388583;stroke-width:0.491342;stroke-opacity:1;paint-order:stroke fill markers"
       id="rect4785"
       width="8.9999037"
       height="0.10558637"
       x="-17.560492"
       y="143.38142"
       transform="matrix(0.83273401,-0.55367325,0.57138908,0.8206793,0,0)"
       sodipodi:insensitive="true" />
    <rect
       style="fill:none;fill-opacity:1;stroke:#388583;stroke-width:0.529612;stroke-opacity:1;paint-order:stroke fill markers"
       id="rect4787"
       width="11.38225"
       height="0.096984327"
       x="-18.897144"
       y="-154.88847"
       transform="matrix(0.83273401,-0.55367325,-0.57138909,-0.8206793,0,0)"
       sodipodi:insensitive="true" />
    <rect
       style="fill:none;fill-opacity:1;stroke:#388583;stroke-width:0.491342;stroke-opacity:1;paint-order:stroke fill markers"
       id="rect4789"
       width="8.9999037"
       height="0.10558647"
       x="-17.560478"
       y="-158.86852"
       transform="matrix(0.83273401,-0.55367325,-0.57138909,-0.8206793,0,0)"
       sodipodi:insensitive="true" />
    <rect
       style="fill:none;fill-opacity:1;stroke:#388583;stroke-width:0.533856;stroke-opacity:1;paint-order:stroke fill markers"
       id="rect4791"
       width="24.440155"
       height="0.045899127"
       x="138.91545"
       y="-13.457072"
       transform="matrix(0.5732289,0.81939528,0.82782754,-0.56098268,0,0)"
       sodipodi:insensitive="true" />
    <rect
       style="fill:none;fill-opacity:1;stroke:#388583;stroke-width:0.529556;stroke-opacity:1;paint-order:stroke fill markers"
       id="rect4793"
       width="22.545345"
       height="0.048957627"
       x="139.70757"
       y="11.511461"
       transform="matrix(0.57322891,0.81939527,-0.82782752,0.56098271,0,0)"
       sodipodi:insensitive="true" />
    <rect
       style="fill:none;fill-opacity:1;stroke:#388583;stroke-width:0.491316;stroke-opacity:1;paint-order:stroke fill markers"
       id="rect4795"
       width="17.826429"
       height="0.053300057"
       x="142.35515"
       y="9.5021563"
       transform="matrix(0.57322891,0.81939527,-0.82782752,0.56098271,0,0)"
       sodipodi:insensitive="true" />
    <rect
       style="fill:none;fill-opacity:1;stroke:#388583;stroke-width:0.529556;stroke-opacity:1;paint-order:stroke fill markers"
       id="rect4797"
       width="22.545351"
       height="0.04895762"
       x="139.70766"
       y="-15.310911"
       transform="matrix(0.5732289,0.81939528,0.82782754,-0.56098268,0,0)"
       sodipodi:insensitive="true" />
    <rect
       style="fill:none;fill-opacity:1;stroke:#388583;stroke-width:0.491317;stroke-opacity:1;paint-order:stroke fill markers"
       id="rect4799"
       width="17.826437"
       height="0.053300057"
       x="142.35524"
       y="-17.320221"
       transform="matrix(0.5732289,0.81939528,0.82782754,-0.56098268,0,0)"
       sodipodi:insensitive="true" />
    <rect
       style="fill:none;fill-opacity:1;stroke:#388583;stroke-width:0.53388;stroke-opacity:1;paint-order:stroke fill markers"
       id="rect4801"
       width="12.338916"
       height="0.090925358"
       x="-19.297104"
       y="151.03389"
       transform="matrix(0.83273401,-0.55367325,0.57138908,0.8206793,0,0)"
       sodipodi:insensitive="true" />
    <rect
       style="fill:none;fill-opacity:1;stroke:#388583;stroke-width:0.529612;stroke-opacity:1;paint-order:stroke fill markers"
       id="rect4803"
       width="11.38225"
       height="0.09698417"
       x="-18.897142"
       y="147.36153"
       transform="matrix(0.83273401,-0.55367325,0.57138908,0.8206793,0,0)"
       sodipodi:insensitive="true" />
    <rect
       style="fill:none;fill-opacity:1;stroke:#388583;stroke-width:0.491342;stroke-opacity:1;paint-order:stroke fill markers"
       id="rect4805"
       width="8.9999037"
       height="0.10558637"
       x="-17.560492"
       y="143.38142"
       transform="matrix(0.83273401,-0.55367325,0.57138908,0.8206793,0,0)"
       sodipodi:insensitive="true" />
    <rect
       style="fill:none;fill-opacity:1;stroke:#388583;stroke-width:0.53388;stroke-opacity:1;paint-order:stroke fill markers"
       id="rect4807"
       width="12.338916"
       height="0.09092544"
       x="-19.297104"
       y="-151.216"
       transform="matrix(0.83273401,-0.55367325,-0.57138909,-0.8206793,0,0)"
       sodipodi:insensitive="true" />
    <rect
       style="fill:none;fill-opacity:1;stroke:#388583;stroke-width:0.529612;stroke-opacity:1;paint-order:stroke fill markers"
       id="rect4809"
       width="11.38225"
       height="0.096984327"
       x="-18.897144"
       y="-154.88847"
       transform="matrix(0.83273401,-0.55367325,-0.57138909,-0.8206793,0,0)"
       sodipodi:insensitive="true" />
    <rect
       style="fill:none;fill-opacity:1;stroke:#388583;stroke-width:0.491342;stroke-opacity:1;paint-order:stroke fill markers"
       id="rect4811"
       width="8.9999037"
       height="0.10558647"
       x="-17.560478"
       y="-158.86852"
       transform="matrix(0.83273401,-0.55367325,-0.57138909,-0.8206793,0,0)"
       sodipodi:insensitive="true" />
    <rect
       style="fill:none;fill-opacity:1;stroke:#388583;stroke-width:0.529612;stroke-opacity:1;paint-order:stroke fill markers"
       id="rect4813"
       width="11.38225"
       height="0.09698417"
       x="-18.897142"
       y="147.36153"
       transform="matrix(0.83273401,-0.55367325,0.57138908,0.8206793,0,0)"
       sodipodi:insensitive="true" />
    <rect
       style="fill:none;fill-opacity:1;stroke:#388583;stroke-width:0.491342;stroke-opacity:1;paint-order:stroke fill markers"
       id="rect4815"
       width="8.9999037"
       height="0.10558637"
       x="-17.560492"
       y="143.38142"
       transform="matrix(0.83273401,-0.55367325,0.57138908,0.8206793,0,0)"
       sodipodi:insensitive="true" />
    <rect
       style="fill:none;fill-opacity:1;stroke:#388583;stroke-width:0.529612;stroke-opacity:1;paint-order:stroke fill markers"
       id="rect4817"
       width="11.38225"
       height="0.096984327"
       x="-18.897144"
       y="-154.88847"
       transform="matrix(0.83273401,-0.55367325,-0.57138909,-0.8206793,0,0)"
       sodipodi:insensitive="true" />
    <rect
       style="fill:none;fill-opacity:1;stroke:#388583;stroke-width:0.491342;stroke-opacity:1;paint-order:stroke fill markers"
       id="rect4819"
       width="8.9999037"
       height="0.10558647"
       x="-17.560478"
       y="-158.86852"
       transform="matrix(0.83273401,-0.55367325,-0.57138909,-0.8206793,0,0)"
       sodipodi:insensitive="true" />
    <rect
       style="fill:none;fill-opacity:1;stroke:#388583;stroke-width:0.533856;stroke-opacity:1;paint-order:stroke fill markers"
       id="rect4821"
       width="24.440155"
       height="0.045899127"
       x="138.91545"
       y="-13.457072"
       transform="matrix(0.5732289,0.81939528,0.82782754,-0.56098268,0,0)"
       sodipodi:insensitive="true" />
    <rect
       style="fill:none;fill-opacity:1;stroke:#388583;stroke-width:0.529556;stroke-opacity:1;paint-order:stroke fill markers"
       id="rect4823"
       width="22.545345"
       height="0.048957627"
       x="139.70757"
       y="11.511461"
       transform="matrix(0.57322891,0.81939527,-0.82782752,0.56098271,0,0)"
       sodipodi:insensitive="true" />
    <rect
       style="fill:none;fill-opacity:1;stroke:#388583;stroke-width:0.491316;stroke-opacity:1;paint-order:stroke fill markers"
       id="rect4825"
       width="17.826429"
       height="0.053300057"
       x="142.35515"
       y="9.5021563"
       transform="matrix(0.57322891,0.81939527,-0.82782752,0.56098271,0,0)"
       sodipodi:insensitive="true" />
    <rect
       style="fill:none;fill-opacity:1;stroke:#388583;stroke-width:0.529556;stroke-opacity:1;paint-order:stroke fill markers"
       id="rect4827"
       width="22.545351"
       height="0.04895762"
       x="139.70766"
       y="-15.310911"
       transform="matrix(0.5732289,0.81939528,0.82782754,-0.56098268,0,0)"
       sodipodi:insensitive="true" />
    <rect
       style="fill:none;fill-opacity:1;stroke:#388583;stroke-width:0.491317;stroke-opacity:1;paint-order:stroke fill markers"
       id="rect4829"
       width="17.826437"
       height="0.053300057"
       x="142.35524"
       y="-17.320221"
       transform="matrix(0.5732289,0.81939528,0.82782754,-0.56098268,0,0)"
       sodipodi:insensitive="true" />
    <rect
       style="fill:none;fill-opacity:1;stroke:#cb755d;stroke-width:0.669095;stroke-opacity:1;paint-order:stroke fill markers"
       id="rect4831"
       width="33.927818"
       height="0.056477137"
       x="161.64119"
       y="24.80267"
       transform="matrix(0.6292009,0.7772427,-0.77276802,0.63468857,0,0)"
       sodipodi:insensitive="true" />
    <ellipse
       style="fill:none;fill-opacity:1;stroke:#388583;stroke-width:0.53388;stroke-opacity:1;paint-order:stroke fill markers"
       id="ellipse4833"
       cx="-194.66917"
       cy="28.021288"
       rx="6.1825666"
       ry="12.40274"
       transform="matrix(-0.83273401,-0.55367325,-0.57138908,0.8206793,0,0)"
       sodipodi:insensitive="true" />
    <rect
       style="fill:none;fill-opacity:1;stroke:#388583;stroke-width:0.53388;stroke-opacity:1;paint-order:stroke fill markers"
       id="rect4835"
       width="12.338916"
       height="0.090925358"
       x="-200.89102"
       y="27.814558"
       transform="matrix(-0.83273401,-0.55367325,-0.57138908,0.8206793,0,0)"
       sodipodi:insensitive="true" />
    <rect
       style="fill:none;fill-opacity:1;stroke:#388583;stroke-width:0.529612;stroke-opacity:1;paint-order:stroke fill markers"
       id="rect4837"
       width="11.38225"
       height="0.09698417"
       x="-200.49159"
       y="24.142147"
       transform="matrix(-0.83273401,-0.55367325,-0.57138908,0.8206793,0,0)"
       sodipodi:insensitive="true" />
    <rect
       style="fill:none;fill-opacity:1;stroke:#388583;stroke-width:0.491342;stroke-opacity:1;paint-order:stroke fill markers"
       id="rect4839"
       width="8.9999037"
       height="0.10558637"
       x="-199.15485"
       y="20.161715"
       transform="matrix(-0.83273401,-0.55367325,-0.57138908,0.8206793,0,0)"
       sodipodi:insensitive="true" />
    <rect
       style="fill:none;fill-opacity:1;stroke:#388583;stroke-width:0.53388;stroke-opacity:1;paint-order:stroke fill markers"
       id="rect4841"
       width="12.338916"
       height="0.09092544"
       x="-200.89102"
       y="-27.996466"
       transform="matrix(-0.83273401,-0.55367325,0.57138909,-0.8206793,0,0)"
       sodipodi:insensitive="true" />
    <rect
       style="fill:none;fill-opacity:1;stroke:#388583;stroke-width:0.529612;stroke-opacity:1;paint-order:stroke fill markers"
       id="rect4843"
       width="11.38225"
       height="0.096984327"
       x="-200.49159"
       y="-31.668865"
       transform="matrix(-0.83273401,-0.55367325,0.57138909,-0.8206793,0,0)"
       sodipodi:insensitive="true" />
    <rect
       style="fill:none;fill-opacity:1;stroke:#388583;stroke-width:0.491342;stroke-opacity:1;paint-order:stroke fill markers"
       id="rect4845"
       width="8.9999037"
       height="0.10558647"
       x="-199.15485"
       y="-35.649216"
       transform="matrix(-0.83273401,-0.55367325,0.57138909,-0.8206793,0,0)"
       sodipodi:insensitive="true" />
    <rect
       style="fill:none;fill-opacity:1;stroke:#388583;stroke-width:0.529612;stroke-opacity:1;paint-order:stroke fill markers"
       id="rect4847"
       width="11.38225"
       height="0.09698417"
       x="-200.49159"
       y="24.142147"
       transform="matrix(-0.83273401,-0.55367325,-0.57138908,0.8206793,0,0)"
       sodipodi:insensitive="true" />
    <rect
       style="fill:none;fill-opacity:1;stroke:#388583;stroke-width:0.491342;stroke-opacity:1;paint-order:stroke fill markers"
       id="rect4849"
       width="8.9999037"
       height="0.10558637"
       x="-199.15485"
       y="20.161715"
       transform="matrix(-0.83273401,-0.55367325,-0.57138908,0.8206793,0,0)"
       sodipodi:insensitive="true" />
    <rect
       style="fill:none;fill-opacity:1;stroke:#388583;stroke-width:0.529612;stroke-opacity:1;paint-order:stroke fill markers"
       id="rect4851"
       width="11.38225"
       height="0.096984327"
       x="-200.49159"
       y="-31.668865"
       transform="matrix(-0.83273401,-0.55367325,0.57138909,-0.8206793,0,0)"
       sodipodi:insensitive="true" />
    <rect
       style="fill:none;fill-opacity:1;stroke:#388583;stroke-width:0.491342;stroke-opacity:1;paint-order:stroke fill markers"
       id="rect4853"
       width="8.9999037"
       height="0.10558647"
       x="-199.15485"
       y="-35.649216"
       transform="matrix(-0.83273401,-0.55367325,0.57138909,-0.8206793,0,0)"
       sodipodi:insensitive="true" />
    <rect
       style="fill:none;fill-opacity:1;stroke:#388583;stroke-width:0.533856;stroke-opacity:1;paint-order:stroke fill markers"
       id="rect4855"
       width="24.440155"
       height="0.045899127"
       x="14.093253"
       y="-194.74362"
       transform="matrix(-0.5732289,0.81939528,-0.82782754,-0.56098268,0,0)"
       sodipodi:insensitive="true" />
    <rect
       style="fill:none;fill-opacity:1;stroke:#388583;stroke-width:0.529556;stroke-opacity:1;paint-order:stroke fill markers"
       id="rect4857"
       width="22.545345"
       height="0.048957627"
       x="14.88542"
       y="192.79845"
       transform="matrix(-0.57322891,0.81939527,0.82782752,0.56098271,0,0)"
       sodipodi:insensitive="true" />
    <rect
       style="fill:none;fill-opacity:1;stroke:#388583;stroke-width:0.491316;stroke-opacity:1;paint-order:stroke fill markers"
       id="rect4859"
       width="17.826429"
       height="0.053300057"
       x="17.533075"
       y="190.78952"
       transform="matrix(-0.57322891,0.81939527,0.82782752,0.56098271,0,0)"
       sodipodi:insensitive="true" />
    <rect
       style="fill:none;fill-opacity:1;stroke:#388583;stroke-width:0.529556;stroke-opacity:1;paint-order:stroke fill markers"
       id="rect4861"
       width="22.545351"
       height="0.04895762"
       x="14.885468"
       y="-196.59822"
       transform="matrix(-0.5732289,0.81939528,-0.82782754,-0.56098268,0,0)"
       sodipodi:insensitive="true" />
    <rect
       style="fill:none;fill-opacity:1;stroke:#388583;stroke-width:0.491317;stroke-opacity:1;paint-order:stroke fill markers"
       id="rect4863"
       width="17.826437"
       height="0.053300057"
       x="17.533142"
       y="-198.60733"
       transform="matrix(-0.5732289,0.81939528,-0.82782754,-0.56098268,0,0)"
       sodipodi:insensitive="true" />
    <rect
       style="fill:none;fill-opacity:1;stroke:#388583;stroke-width:0.53388;stroke-opacity:1;paint-order:stroke fill markers"
       id="rect4865"
       width="12.338916"
       height="0.090925358"
       x="-200.89102"
       y="27.814558"
       transform="matrix(-0.83273401,-0.55367325,-0.57138908,0.8206793,0,0)"
       sodipodi:insensitive="true" />
    <rect
       style="fill:none;fill-opacity:1;stroke:#388583;stroke-width:0.529612;stroke-opacity:1;paint-order:stroke fill markers"
       id="rect4867"
       width="11.38225"
       height="0.09698417"
       x="-200.49159"
       y="24.142147"
       transform="matrix(-0.83273401,-0.55367325,-0.57138908,0.8206793,0,0)"
       sodipodi:insensitive="true" />
    <rect
       style="fill:none;fill-opacity:1;stroke:#388583;stroke-width:0.491342;stroke-opacity:1;paint-order:stroke fill markers"
       id="rect4869"
       width="8.9999037"
       height="0.10558637"
       x="-199.15485"
       y="20.161715"
       transform="matrix(-0.83273401,-0.55367325,-0.57138908,0.8206793,0,0)"
       sodipodi:insensitive="true" />
    <rect
       style="fill:none;fill-opacity:1;stroke:#388583;stroke-width:0.53388;stroke-opacity:1;paint-order:stroke fill markers"
       id="rect4871"
       width="12.338916"
       height="0.09092544"
       x="-200.89102"
       y="-27.996466"
       transform="matrix(-0.83273401,-0.55367325,0.57138909,-0.8206793,0,0)"
       sodipodi:insensitive="true" />
    <rect
       style="fill:none;fill-opacity:1;stroke:#388583;stroke-width:0.529612;stroke-opacity:1;paint-order:stroke fill markers"
       id="rect4873"
       width="11.38225"
       height="0.096984327"
       x="-200.49159"
       y="-31.668865"
       transform="matrix(-0.83273401,-0.55367325,0.57138909,-0.8206793,0,0)"
       sodipodi:insensitive="true" />
    <rect
       style="fill:none;fill-opacity:1;stroke:#388583;stroke-width:0.491342;stroke-opacity:1;paint-order:stroke fill markers"
       id="rect4875"
       width="8.9999037"
       height="0.10558647"
       x="-199.15485"
       y="-35.649216"
       transform="matrix(-0.83273401,-0.55367325,0.57138909,-0.8206793,0,0)"
       sodipodi:insensitive="true" />
    <rect
       style="fill:none;fill-opacity:1;stroke:#388583;stroke-width:0.529612;stroke-opacity:1;paint-order:stroke fill markers"
       id="rect4877"
       width="11.38225"
       height="0.09698417"
       x="-200.49159"
       y="24.142147"
       transform="matrix(-0.83273401,-0.55367325,-0.57138908,0.8206793,0,0)"
       sodipodi:insensitive="true" />
    <rect
       style="fill:none;fill-opacity:1;stroke:#388583;stroke-width:0.491342;stroke-opacity:1;paint-order:stroke fill markers"
       id="rect4879"
       width="8.9999037"
       height="0.10558637"
       x="-199.15485"
       y="20.161715"
       transform="matrix(-0.83273401,-0.55367325,-0.57138908,0.8206793,0,0)"
       sodipodi:insensitive="true" />
    <rect
       style="fill:none;fill-opacity:1;stroke:#388583;stroke-width:0.529612;stroke-opacity:1;paint-order:stroke fill markers"
       id="rect4881"
       width="11.38225"
       height="0.096984327"
       x="-200.49159"
       y="-31.668865"
       transform="matrix(-0.83273401,-0.55367325,0.57138909,-0.8206793,0,0)"
       sodipodi:insensitive="true" />
    <rect
       style="fill:none;fill-opacity:1;stroke:#388583;stroke-width:0.491342;stroke-opacity:1;paint-order:stroke fill markers"
       id="rect4883"
       width="8.9999037"
       height="0.10558647"
       x="-199.15485"
       y="-35.649216"
       transform="matrix(-0.83273401,-0.55367325,0.57138909,-0.8206793,0,0)"
       sodipodi:insensitive="true" />
    <rect
       style="fill:none;fill-opacity:1;stroke:#388583;stroke-width:0.533856;stroke-opacity:1;paint-order:stroke fill markers"
       id="rect4885"
       width="24.440155"
       height="0.045899127"
       x="14.093253"
       y="-194.74362"
       transform="matrix(-0.5732289,0.81939528,-0.82782754,-0.56098268,0,0)"
       sodipodi:insensitive="true" />
    <rect
       style="fill:none;fill-opacity:1;stroke:#388583;stroke-width:0.529556;stroke-opacity:1;paint-order:stroke fill markers"
       id="rect4887"
       width="22.545345"
       height="0.048957627"
       x="14.88542"
       y="192.79845"
       transform="matrix(-0.57322891,0.81939527,0.82782752,0.56098271,0,0)"
       sodipodi:insensitive="true" />
    <rect
       style="fill:none;fill-opacity:1;stroke:#388583;stroke-width:0.491316;stroke-opacity:1;paint-order:stroke fill markers"
       id="rect4889"
       width="17.826429"
       height="0.053300057"
       x="17.533075"
       y="190.78952"
       transform="matrix(-0.57322891,0.81939527,0.82782752,0.56098271,0,0)"
       sodipodi:insensitive="true" />
    <rect
       style="fill:none;fill-opacity:1;stroke:#388583;stroke-width:0.529556;stroke-opacity:1;paint-order:stroke fill markers"
       id="rect4891"
       width="22.545351"
       height="0.04895762"
       x="14.885468"
       y="-196.59822"
       transform="matrix(-0.5732289,0.81939528,-0.82782754,-0.56098268,0,0)"
       sodipodi:insensitive="true" />
    <rect
       style="fill:none;fill-opacity:1;stroke:#388583;stroke-width:0.491317;stroke-opacity:1;paint-order:stroke fill markers"
       id="rect4893"
       width="17.826437"
       height="0.053300057"
       x="17.533142"
       y="-198.60733"
       transform="matrix(-0.5732289,0.81939528,-0.82782754,-0.56098268,0,0)"
       sodipodi:insensitive="true" />
    <rect
       style="fill:none;fill-opacity:1;stroke:#cb755d;stroke-width:0.669095;stroke-opacity:1;paint-order:stroke fill markers"
       id="rect4895"
       width="33.927818"
       height="0.056477137"
       x="20.525934"
       y="196.69958"
       transform="matrix(-0.6292009,0.7772427,0.77276802,0.63468857,0,0)"
       sodipodi:insensitive="true" />
    <g
       aria-label="Practice"
       transform="matrix(1.4654732,0,0,1.4654732,-18.391149,-102.56491)"
       id="text4638"
       style="font-style:normal;font-variant:normal;font-weight:normal;font-stretch:normal;font-size:14.1111px;line-height:1.25;font-family:aakar;-inkscape-font-specification:aakar;white-space:pre;shape-inside:url(#rect4640);fill:#333333;fill-opacity:1;stroke:none">
      <path
         d="m 63.640038,220.64436 h 1.989665 c 0.931332,0 1.777998,-0.19756 2.328331,-0.53622 0.733777,-0.45156 1.213555,-1.35467 1.213555,-2.27189 0,-1.66511 -1.354666,-2.69522 -3.527775,-2.69522 h -4.684886 v 0.43744 l 0.352778,0.0423 c 0.733777,0.0847 0.90311,0.36688 0.917221,1.55222 v 5.54566 c -0.01411,1.18533 -0.183444,1.46755 -0.917221,1.55222 l -0.352778,0.0423 v 0.43745 h 4.120442 v -0.43745 l -0.522111,-0.0423 c -0.733777,-0.0847 -0.90311,-0.36689 -0.917221,-1.55222 z m 0,-0.60678 v -3.40078 c 0,-0.762 0.253999,-0.90311 1.608665,-0.90311 0.959555,0 1.53811,0.18345 1.947332,0.635 0.352777,0.381 0.536222,0.90311 0.536222,1.50989 0,0.60678 -0.183445,1.10067 -0.536222,1.49578 -0.423333,0.47978 -0.945444,0.66322 -1.79211,0.66322 z"
         style="font-style:normal;font-variant:normal;font-weight:normal;font-stretch:normal;font-family:'URW Bookman';-inkscape-font-specification:'URW Bookman';fill:#333333"
         id="path4646" />
      <path
         d="m 72.151015,217.9068 h -0.479777 c -0.874888,0.16934 -1.340555,0.22578 -2.130776,0.28223 v 0.42333 l 0.338666,0.0282 c 0.747888,0.0847 0.931333,0.31044 0.931333,1.17122 v 3.31611 c 0,0.77611 -0.254,1.11478 -0.874888,1.17122 l -0.352778,0.0282 v 0.42334 h 3.795886 v -0.42334 l -0.352778,-0.0282 c -0.620888,-0.0564 -0.874888,-0.39511 -0.874888,-1.17122 v -3.45722 c 0.508,-0.56444 0.889,-0.79022 1.298222,-0.79022 0.239888,0 0.338666,0.0423 0.592666,0.22578 0.254,0.16933 0.465666,0.23989 0.733777,0.23989 0.451555,0 0.790222,-0.32456 0.790222,-0.77611 0,-0.46567 -0.423333,-0.79023 -1.030111,-0.79023 -0.324555,0 -0.663221,0.0706 -1.001888,0.22578 -0.338666,0.14111 -0.409222,0.19756 -1.086555,0.77611 -0.04233,0.0282 -0.155222,0.14111 -0.296333,0.254 z"
         style="font-style:normal;font-variant:normal;font-weight:normal;font-stretch:normal;font-family:'URW Bookman';-inkscape-font-specification:'URW Bookman';fill:#333333"
         id="path4648" />
      <path
         d="m 80.736296,220.74313 c -0.112888,0.0141 -0.338666,0.0423 -0.677332,0.0706 -0.889,0.0988 -1.199444,0.14111 -1.707444,0.28222 -1.566332,0.39511 -2.370664,1.08656 -2.370664,2.032 0,1.016 0.917221,1.74978 2.173109,1.74978 0.959555,0 1.636888,-0.28223 2.582331,-1.08656 0.268111,0.762 0.747889,1.08656 1.580444,1.08656 0.606777,0 1.058332,-0.16934 1.453443,-0.55034 l -0.268111,-0.36688 c -0.239889,0.21166 -0.395111,0.28222 -0.635,0.28222 -0.296333,0 -0.550332,-0.14111 -0.663221,-0.39511 -0.09878,-0.19756 -0.127,-0.381 -0.127,-0.98778 v -2.99155 c 0,-0.84667 -0.225778,-1.28411 -0.804333,-1.60867 -0.522111,-0.29633 -1.241777,-0.47978 -1.904998,-0.47978 -1.636888,0 -3.07622,0.84667 -3.07622,1.79211 0,0.33867 0.310444,0.62089 0.677333,0.62089 0.39511,0 0.719666,-0.32455 0.719666,-0.71966 l -0.01411,-0.39512 c 0,-0.40922 0.634999,-0.73377 1.425221,-0.73377 1.001888,0 1.636887,0.47977 1.636887,1.27 z m 0,2.413 c -0.804332,0.74789 -1.382887,1.04422 -2.102554,1.04422 -0.663221,0 -1.213554,-0.53622 -1.213554,-1.19944 0,-0.95955 1.185332,-1.58044 3.316108,-1.76389 z"
         style="font-style:normal;font-variant:normal;font-weight:normal;font-stretch:normal;font-family:'URW Bookman';-inkscape-font-specification:'URW Bookman';fill:#333333"
         id="path4650" />
      <path
         d="m 90.290614,222.97269 c -0.790221,1.00189 -1.368776,1.34055 -2.229554,1.34055 -1.467554,0 -2.427109,-1.15711 -2.427109,-2.92099 0,-0.79023 0.141111,-1.48167 0.409222,-2.032 0.324555,-0.67734 0.874888,-1.016 1.650999,-1.016 0.733777,0 1.396999,0.43744 1.396999,0.93133 l -0.01411,0.49389 c 0,0.40922 0.296333,0.71966 0.719666,0.71966 0.409222,0 0.719666,-0.32455 0.719666,-0.76199 0,-0.47978 -0.296333,-0.95956 -0.804333,-1.34056 -0.564444,-0.40922 -1.227666,-0.60678 -2.074332,-0.60678 -1.03011,0 -1.848554,0.31045 -2.44122,0.91723 -0.634999,0.66322 -1.001888,1.62277 -1.001888,2.63877 0,2.11667 1.396999,3.54189 3.471331,3.54189 1.354665,0 2.300109,-0.508 3.033886,-1.651 z"
         style="font-style:normal;font-variant:normal;font-weight:normal;font-stretch:normal;font-family:'URW Bookman';-inkscape-font-specification:'URW Bookman';fill:#333333"
         id="path4652" />
      <path
         d="m 95.581615,217.9068 h -2.017887 v -2.56822 h -0.536222 c 0.01411,1.73567 -0.606777,2.51178 -1.989665,2.56822 v 0.46567 h 1.185332 v 4.72722 c 0,0.69144 0.197556,1.12889 0.649111,1.41111 0.366889,0.23989 0.860777,0.36689 1.368777,0.36689 0.832555,0 1.481665,-0.32456 1.989665,-0.98778 l -0.381,-0.31044 c -0.479777,0.55033 -0.804332,0.73377 -1.227665,0.73377 -0.719667,0 -1.058333,-0.57855 -1.058333,-1.86266 v -4.07811 h 2.017887 z"
         style="font-style:normal;font-variant:normal;font-weight:normal;font-stretch:normal;font-family:'URW Bookman';-inkscape-font-specification:'URW Bookman';fill:#333333"
         id="path4654" />
      <path
         d="m 99.228452,217.9068 h -0.479777 c -0.860777,0.15523 -1.326444,0.22578 -2.074332,0.28223 v 0.42333 l 0.282222,0.0282 c 0.747888,0.0847 0.931333,0.31044 0.931333,1.17122 v 3.31611 c 0,0.77611 -0.254,1.11478 -0.874889,1.17122 l -0.352777,0.0282 v 0.42334 h 3.781778 v -0.42334 l -0.33867,-0.0282 c -0.620888,-0.0564 -0.874888,-0.39511 -0.874888,-1.17122 z m -0.649111,-2.38477 c -0.479777,0 -0.860777,0.381 -0.860777,0.84666 0,0.47978 0.381,0.86078 0.860777,0.86078 0.465667,0 0.846666,-0.381 0.846666,-0.86078 0,-0.46566 -0.380999,-0.84666 -0.846666,-0.84666 z"
         style="font-style:normal;font-variant:normal;font-weight:normal;font-stretch:normal;font-family:'URW Bookman';-inkscape-font-specification:'URW Bookman';fill:#333333"
         id="path4656" />
      <path
         d="m 107.24047,222.97269 c -0.79022,1.00189 -1.36878,1.34055 -2.22955,1.34055 -1.46756,0 -2.42711,-1.15711 -2.42711,-2.92099 0,-0.79023 0.14111,-1.48167 0.40922,-2.032 0.32455,-0.67734 0.87489,-1.016 1.651,-1.016 0.73377,0 1.397,0.43744 1.397,0.93133 l -0.0141,0.49389 c 0,0.40922 0.29633,0.71966 0.71966,0.71966 0.40922,0 0.71967,-0.32455 0.71967,-0.76199 0,-0.47978 -0.29634,-0.95956 -0.80434,-1.34056 -0.56444,-0.40922 -1.22766,-0.60678 -2.07433,-0.60678 -1.03011,0 -1.84855,0.31045 -2.44122,0.91723 -0.635,0.66322 -1.00189,1.62277 -1.00189,2.63877 0,2.11667 1.397,3.54189 3.47134,3.54189 1.35466,0 2.3001,-0.508 3.03388,-1.651 z"
         style="font-style:normal;font-variant:normal;font-weight:normal;font-stretch:normal;font-family:'URW Bookman';-inkscape-font-specification:'URW Bookman';fill:#333333"
         id="path4659" />
      <path
         d="m 114.30616,222.88802 c -0.52211,0.93133 -1.15711,1.35467 -2.04611,1.35467 -1.00189,0 -1.72155,-0.49389 -2.10255,-1.45345 -0.21167,-0.49388 -0.28222,-1.11477 -0.28222,-2.11666 h 4.89655 c -0.0141,-0.81844 -0.19756,-1.32644 -0.66322,-1.86267 -0.56445,-0.66322 -1.42523,-1.03011 -2.413,-1.03011 -1.93322,0 -3.33022,1.45345 -3.33022,3.48545 0,0.94544 0.35278,1.89088 0.93133,2.53999 0.635,0.71967 1.49578,1.07245 2.55411,1.07245 1.29822,0 2.20133,-0.53622 2.921,-1.76389 z m -4.38855,-2.77988 c 0.0988,-0.59267 0.18344,-0.84667 0.40922,-1.143 0.29633,-0.40923 0.73378,-0.62089 1.29822,-0.62089 1.03011,0 1.67922,0.67733 1.67922,1.76389 z"
         style="font-style:normal;font-variant:normal;font-weight:normal;font-stretch:normal;font-family:'URW Bookman';-inkscape-font-specification:'URW Bookman';fill:#333333"
         id="path4661" />
    </g>
    <rect
       style="fill:none;stroke:#c8c8c8;stroke-width:1;stroke-miterlimit:4;stroke-dasharray:none;stroke-opacity:1;paint-order:stroke fill markers"
       id="rect835-1"
       width="202.3772"
       height="202.3772"
       x="4.0452161"
       y="45.180836" />
  </g>
</svg>
