<?xml version="1.0" encoding="UTF-8" standalone="no"?>
<svg
   xmlns:dc="http://purl.org/dc/elements/1.1/"
   xmlns:cc="http://creativecommons.org/ns#"
   xmlns:rdf="http://www.w3.org/1999/02/22-rdf-syntax-ns#"
   xmlns:svg="http://www.w3.org/2000/svg"
   xmlns="http://www.w3.org/2000/svg"
   xmlns:xlink="http://www.w3.org/1999/xlink"
   width="203.3772mm"
   height="203.3772mm"
   viewBox="0 0 203.3772 203.3772"
   version="1.1"
   id="svg3963">
  <defs
     id="defs3957">
    
    <linearGradient
       

       id="linearGradient4595"
       x1="67.546944"
       y1="246.41632"
       x2="67.546944"
       y2="260.03989"
       gradientUnits="userSpaceOnUse"
       gradientTransform="matrix(1,0,0,0.67874538,0,-416.61113)">

        <stop
         style="stop-color:#f2f2f2;stop-opacity:1;"
         offset="0"
         id="stop4589" />
        <stop
         style="stop-color:#000000;stop-opacity:1"
         offset="1"
         id="stop4591" />
     </linearGradient>
    <linearGradient
       
       id="linearGradient4618"
       gradientUnits="userSpaceOnUse"
       gradientTransform="matrix(1,0,0,0.67874538,-253.48554,-374.37277)"
       x1="67.546944"
       y1="246.41632"
       x2="67.546944"
       y2="260.03989">
        <stop
         style="stop-color:#f2f2f2;stop-opacity:1;"
         offset="0"
         id="stop4589" />
        <stop
         style="stop-color:#000000;stop-opacity:1"
         offset="1"
         id="stop4591" />
     </linearGradient>
  </defs>
  <metadata
     id="metadata3960">
    <rdf:RDF>
      <cc:Work
         rdf:about="">
        <dc:format>image/svg+xml</dc:format>
        <dc:type
           rdf:resource="http://purl.org/dc/dcmitype/StillImage" />
        <dc:title></dc:title>
      </cc:Work>
    </rdf:RDF>
  </metadata>
  <g
     id="layer1"
     transform="translate(-4.1447349,-46.478069)">
    <rect
       style="fill:#c1e0e1;fill-opacity:1;stroke-width:0.794449;paint-order:stroke fill markers"
       id="rect833"
       width="113.33772"
       height="128.64899"
       x="48.409908"
       y="70.14946"
       ry="15.905752" />
    <g
       aria-label="My words"
       transform="matrix(1.5207102,0,0,1.5207102,-8.7889631,-96.184211)"
       id="text843"
       style="font-style:normal;font-weight:normal;font-size:14.1111px;line-height:1.25;font-family:sans-serif;white-space:pre;shape-inside:url(#rect845);fill:#4d4d4d;fill-opacity:1;stroke:none">
      <path
         d="m 54.569489,212.18814 h -3.562226 v -0.60633 l 0.751031,-0.0551 q 0.151584,-0.0138 0.227376,-0.11024 0.08268,-0.0965 0.08268,-0.19981 v -7.77902 l -3.245277,8.75053 h -0.702799 l -3.135035,-8.61962 v 7.64811 q 0,0.10335 0.07579,0.19981 0.08268,0.0965 0.234267,0.11024 l 0.806151,0.0551 v 0.60633 h -3.052352 v -0.60633 l 0.806152,-0.0551 q 0.151584,-0.0138 0.220486,-0.11024 0.07579,-0.0965 0.07579,-0.19981 v -7.52409 q 0,-0.10335 -0.07579,-0.19981 -0.0689,-0.10336 -0.220486,-0.11025 l -0.806152,-0.0551 v -0.60633 h 3.162595 v 0.37896 l 2.556259,6.93152 2.556259,-6.89018 v -0.4203 h 3.245277 v 0.60633 l -0.76481,0.0551 q -0.151584,0.007 -0.234266,0.11025 -0.07579,0.0965 -0.07579,0.19981 v 7.52409 q 0,0.10335 0.07579,0.19981 0.08268,0.0965 0.234266,0.11024 l 0.76481,0.0551 z"
         style="font-style:normal;font-variant:normal;font-weight:normal;font-stretch:normal;font-family:'Abyssinica SIL';-inkscape-font-specification:'Abyssinica SIL'"
         id="path922" />
      <path
         d="m 62.355399,205.93874 -0.73725,0.0827 -2.707843,6.60079 q -0.08957,0.22738 -0.282498,0.64768 -0.186035,0.42719 -0.447862,0.86816 -0.254937,0.44787 -0.551214,0.74414 -0.254937,0.25494 -0.564996,0.39274 -0.303168,0.1447 -0.661458,0.1447 -0.502983,0 -0.7717,-0.24805 -0.261827,-0.24115 -0.261827,-0.5581 0,-0.46854 0.454752,-0.8475 l 1.322916,0.60634 q 0.234266,-0.23427 0.468532,-0.6339 0.234266,-0.39963 0.420301,-0.82682 0.192926,-0.42719 0.296278,-0.73725 l -2.397784,-6.15293 -0.778591,-0.0827 v -0.55121 h 3.121254 v 0.55121 l -0.675238,0.0413 q -0.227376,0.0207 -0.227376,0.22738 0,0.0551 0.01378,0.0827 l 1.639864,4.16167 1.674315,-4.16167 q 0.02067,-0.0413 0.02067,-0.0896 0,-0.20671 -0.213596,-0.22049 l -0.668348,-0.0413 v -0.55121 h 2.514918 z"
         style="font-style:normal;font-variant:normal;font-weight:normal;font-stretch:normal;font-family:'Abyssinica SIL';-inkscape-font-specification:'Abyssinica SIL'"
         id="path924" />
      <path
         d="m 79.760008,205.93874 -0.716579,0.0827 -1.936142,6.16671 H 76.10821 l -1.667425,-5.27788 -1.86035,5.27788 h -1.005967 l -1.805229,-6.16671 -0.778591,-0.0827 v -0.55121 h 3.093693 v 0.55121 l -0.661458,0.0413 q -0.220485,0.0207 -0.220485,0.23427 0,0.0482 0.0069,0.0758 l 1.171331,4.38905 1.819009,-5.29166 h 1.005967 l 1.632974,5.29166 1.302245,-4.38905 q 0.0069,-0.0207 0.0069,-0.0689 0,-0.0896 -0.05512,-0.15847 -0.05512,-0.0758 -0.151584,-0.0827 l -0.647677,-0.0413 v -0.55121 h 2.466686 z"
         style="font-style:normal;font-variant:normal;font-weight:normal;font-stretch:normal;font-family:'Abyssinica SIL';-inkscape-font-specification:'Abyssinica SIL'"
         id="path926" />
      <path
         d="m 87.098055,208.79817 q 0,0.99908 -0.413411,1.81212 -0.413411,0.80615 -1.171332,1.28157 -0.75103,0.46854 -1.784558,0.46854 -1.026637,0 -1.777668,-0.46854 -0.75103,-0.46853 -1.157551,-1.27468 -0.406521,-0.80615 -0.406521,-1.81901 0,-1.00597 0.406521,-1.81901 0.413411,-0.81304 1.171332,-1.28846 0.76481,-0.47543 1.805228,-0.47543 1.054199,0 1.798339,0.48232 0.74414,0.48231 1.13688,1.29535 0.392741,0.81304 0.392741,1.80523 z m -1.467609,-0.0138 q 0,-0.7717 -0.206706,-1.44005 -0.199815,-0.66835 -0.620117,-1.08176 -0.413411,-0.41341 -1.047308,-0.41341 -0.654568,0 -1.074869,0.41341 -0.413411,0.41341 -0.613226,1.08176 -0.199816,0.66835 -0.199816,1.44005 0,0.76481 0.199816,1.44005 0.206705,0.66835 0.620116,1.08176 0.420302,0.41341 1.054199,0.41341 0.647677,0 1.061088,-0.41341 0.420302,-0.41341 0.620117,-1.08176 0.206706,-0.66835 0.206706,-1.44005 z"
         style="font-style:normal;font-variant:normal;font-weight:normal;font-stretch:normal;font-family:'Abyssinica SIL';-inkscape-font-specification:'Abyssinica SIL'"
         id="path928" />
      <path
         d="M 92.968495,206.82758 H 92.41728 q -0.130913,-0.15848 -0.316948,-0.26872 -0.179145,-0.11713 -0.440972,-0.11713 -0.337619,0 -0.695909,0.23426 -0.351399,0.23427 -0.716579,0.64079 v 3.96875 q 0,0.29628 0.296278,0.31006 l 0.930175,0.0413 v 0.55121 H 87.94555 v -0.53743 l 0.695909,-0.0551 q 0.124023,-0.0138 0.206705,-0.0965 0.08957,-0.0827 0.08957,-0.21359 v -4.89892 h -1.019748 v -0.46165 l 1.750107,-0.53743 h 0.578776 v 1.25401 q 0.206706,-0.22737 0.516764,-0.56499 0.310058,-0.33762 0.661458,-0.59945 0.351399,-0.26183 0.682128,-0.26183 0.220486,0 0.475423,0.0689 0.254937,0.0689 0.38585,0.14469 z"
         style="font-style:normal;font-variant:normal;font-weight:normal;font-stretch:normal;font-family:'Abyssinica SIL';-inkscape-font-specification:'Abyssinica SIL'"
         id="path930" />
      <path
         d="m 100.69928,212.18814 h -2.218639 v -0.75103 q -0.482313,0.37207 -1.026637,0.64768 -0.544325,0.27561 -1.157552,0.27561 -0.709689,0 -1.226453,-0.29628 -0.509873,-0.30317 -0.840602,-0.79926 -0.323839,-0.4961 -0.482313,-1.09554 -0.158474,-0.59945 -0.158474,-1.1989 0,-0.95773 0.39274,-1.81211 0.392741,-0.86128 1.192002,-1.39871 0.799262,-0.54433 2.011934,-0.54433 0.33762,0 0.73036,0.0689 0.399631,0.062 0.564995,0.10335 v -2.58382 h -1.067978 v -0.46853 l 1.819009,-0.54433 h 0.564995 v 9.49468 q 0,0.28938 0.296273,0.31006 l 0.60634,0.0413 z m -2.218639,-1.28157 v -4.80246 q -0.179144,-0.062 -0.537434,-0.13092 -0.3514,-0.0758 -0.661458,-0.0758 -1.047308,0 -1.674315,0.77859 -0.627007,0.7717 -0.627007,2.05328 0,1.15066 0.537435,1.90858 0.537434,0.75792 1.50895,0.75792 0.427192,0 0.799262,-0.15847 0.37896,-0.16537 0.654567,-0.33073 z"
         style="font-style:normal;font-variant:normal;font-weight:normal;font-stretch:normal;font-family:'Abyssinica SIL';-inkscape-font-specification:'Abyssinica SIL'"
         id="path932" />
      <path
         d="m 106.20454,210.14176 q 0,1.04041 -0.71658,1.63297 -0.71658,0.58567 -1.97748,0.58567 -0.64768,0 -1.1989,-0.13781 -0.54432,-0.13091 -0.75792,-0.22048 v -1.87413 h 0.71658 l 0.17226,1.19889 q 0.21359,0.1378 0.52365,0.26872 0.31695,0.12402 0.73036,0.12402 0.60634,0 0.93707,-0.33762 0.33072,-0.33762 0.33072,-0.75792 0,-0.55811 -0.39963,-0.8406 -0.39963,-0.28939 -1.13688,-0.64079 l -0.18603,-0.0896 q -0.7717,-0.36518 -1.18511,-0.75792 -0.40652,-0.39963 -0.40652,-1.03353 0,-0.94396 0.66145,-1.49517 0.66146,-0.55122 1.88102,-0.55122 0.62012,0 1.10243,0.11714 0.48921,0.11024 0.7028,0.2067 v 1.66743 h -0.73725 l -0.11024,-0.9853 q -0.15158,-0.11713 -0.44786,-0.22049 -0.29628,-0.10335 -0.62701,-0.10335 -0.57877,0 -0.86127,0.26872 -0.2825,0.26183 -0.2825,0.67524 0,0.47542 0.33762,0.75792 0.34451,0.27561 1.24023,0.68213 0.73725,0.33762 1.21268,0.75792 0.48231,0.41341 0.48231,1.10243 z"
         style="font-style:normal;font-variant:normal;font-weight:normal;font-stretch:normal;font-family:'Abyssinica SIL';-inkscape-font-specification:'Abyssinica SIL'"
         id="path934" />
    </g>
    <rect
       style="fill:#004d4d;fill-opacity:1;stroke-width:0.80815;paint-order:stroke fill markers"
       id="rect849"
       width="90.193932"
       height="6.2721539"
       x="60.323856"
       y="86.660126" />
    <rect
       style="fill:#004d4d;fill-opacity:1;stroke-width:0.80815;paint-order:stroke fill markers"
       id="rect851"
       width="90.193932"
       height="6.2721539"
       x="60.323856"
       y="104.49831" />
    <rect
       style="fill:#004d4d;fill-opacity:1;stroke-width:0.80815;paint-order:stroke fill markers"
       id="rect853"
       width="90.193932"
       height="6.2721539"
       x="60.323856"
       y="122.33649" />
    <rect
       style="fill:#004d4d;fill-opacity:1;stroke-width:0.80815;paint-order:stroke fill markers"
       id="rect855"
       width="90.193932"
       height="6.2721539"
       x="60.323856"
       y="140.17468" />
    <rect
       style="fill:#004d4d;fill-opacity:1;stroke-width:0.80815;paint-order:stroke fill markers"
       id="rect857"
       width="90.193932"
       height="6.2721539"
       x="60.323856"
       y="158.01289" />
    <rect
       style="fill:#004d4d;fill-opacity:1;stroke-width:0.80815;paint-order:stroke fill markers"
       id="rect859"
       width="90.193932"
       height="6.2721539"
       x="60.323856"
       y="175.85107" />
    <rect
       style="fill:url(#linearGradient4595);fill-opacity:1;stroke:none;stroke-width:0.464337;paint-order:stroke fill markers"
       id="rect4585"
       width="203.19286"
       height="2.8322325"
       x="4.3290763"
       y="-249.85526"
       ry="1.4161162"
       rx="0"
       transform="scale(1,-1)" />
    <rect
       style="fill:url(#linearGradient4618);fill-opacity:1;stroke:none;stroke-width:0.464337;paint-order:stroke fill markers"
       id="rect4616"
       width="203.19286"
       height="2.8322325"
       x="-249.15614"
       y="-207.61627"
       ry="1.4161162"
       rx="0"
       transform="matrix(0,-1,-1,0,0,0)" />
  </g>
</svg>
